<?xml version="1.0" encoding="UTF-8"?>
<!DOCTYPE svg PUBLIC "-//W3C//DTD SVG 1.1//EN" "http://www.w3.org/Graphics/SVG/1.1/DTD/svg11.dtd">
<svg xmlns="http://www.w3.org/2000/svg" version="1.1" width="626px" height="398px" style="shape-rendering:geometricPrecision; text-rendering:geometricPrecision; image-rendering:optimizeQuality; fill-rule:evenodd; clip-rule:evenodd" xmlns:xlink="http://www.w3.org/1999/xlink">
<g><path style="opacity:0.269" fill="#e1e1e1" d="M 477.5,4.5 C 448.808,4.1995 420.142,4.53284 391.5,5.5C 391.918,4.77842 392.584,4.27842 393.5,4C 421.67,3.16965 449.67,3.33632 477.5,4.5 Z"/></g>
<g><path style="opacity:1" fill="#fefefe" d="M 477.5,4.5 C 479.181,6.00751 481.181,7.00751 483.5,7.5C 485.822,8.80214 487.155,10.8021 487.5,13.5C 487.5,40.8333 487.5,68.1667 487.5,95.5C 486.931,98.7191 485.264,101.052 482.5,102.5C 480.821,102.892 479.154,103.392 477.5,104C 449.502,104.5 421.502,104.667 393.5,104.5C 388.833,103.167 385.833,100.167 384.5,95.5C 384.2,67.4748 384.534,39.4748 385.5,11.5C 386.5,8.5 388.5,6.5 391.5,5.5C 420.142,4.53284 448.808,4.1995 477.5,4.5 Z"/></g>
<g><path style="opacity:0.8" fill="#e8e8e8" d="M 477.5,4.5 C 480.089,4.46095 482.089,5.46095 483.5,7.5C 481.181,7.00751 479.181,6.00751 477.5,4.5 Z"/></g>
<g><path style="opacity:0.679" fill="#f2f2f2" d="M 487.5,13.5 C 488.433,16.6424 489.099,19.9758 489.5,23.5C 488.248,38.0643 488.248,52.7309 489.5,67.5C 489.051,77.0047 488.384,86.338 487.5,95.5C 487.5,68.1667 487.5,40.8333 487.5,13.5 Z"/></g>
<g><path style="opacity:0.998" fill="#fdfdfd" d="M 371.5,40.5 C 371.467,59.5866 371.467,78.92 371.5,98.5C 370.92,100.749 369.587,102.415 367.5,103.5C 348.534,104.462 329.534,104.796 310.5,104.5C 306.433,103.408 303.933,100.742 303,96.5C 302.333,78.8333 302.333,61.1667 303,43.5C 304.598,38.9014 307.765,36.0681 312.5,35C 329.5,34.3333 346.5,34.3333 363.5,35C 366.721,36.104 369.388,37.9374 371.5,40.5 Z M 356.5,53.5 C 356.5,53.8333 356.5,54.1667 356.5,54.5C 357.24,58.5095 356.907,62.5095 355.5,66.5C 352.139,68.8472 348.472,70.6806 344.5,72C 342.389,73.7347 340.389,75.568 338.5,77.5C 337.5,77 336.5,76.5 335.5,76C 336.237,73.0991 337.903,70.9325 340.5,69.5C 341.71,69.0679 342.71,68.4013 343.5,67.5C 346.745,67.03 349.579,65.6966 352,63.5C 352.801,60.633 352.634,57.9664 351.5,55.5C 351.389,54.8826 351.056,54.3826 350.5,54C 346.179,53.501 341.846,53.3343 337.5,53.5C 331.376,52.6505 325.876,53.9838 321,57.5C 319.699,57.3613 318.866,56.6946 318.5,55.5C 319.488,54.205 320.488,52.8717 321.5,51.5C 332.11,49.2789 342.777,49.1122 353.5,51C 354.373,52.045 355.373,52.8783 356.5,53.5 Z M 335.5,82.5 C 342.167,83.5 342.167,84.5 335.5,85.5C 335.5,84.5 335.5,83.5 335.5,82.5 Z"/></g>
<g><path style="opacity:0.398" fill="#e7e7e7" d="M 385.5,11.5 C 384.534,39.4748 384.2,67.4748 384.5,95.5C 383.336,68.3364 383.17,41.0031 384,13.5C 384.278,12.5842 384.778,11.9175 385.5,11.5 Z"/></g>
<g><path style="opacity:0.796" fill="#eaeaea" d="M 371.5,40.5 C 372.148,42.0858 372.648,43.7525 373,45.5C 373.667,62.1667 373.667,78.8333 373,95.5C 372.768,96.7375 372.268,97.7375 371.5,98.5C 371.467,78.92 371.467,59.5866 371.5,40.5 Z"/></g>
<g><path style="opacity:0.62" fill="#f1f1f1" d="M 356.5,53.5 C 355.373,52.8783 354.373,52.045 353.5,51C 342.777,49.1122 332.11,49.2789 321.5,51.5C 321.881,50.0689 322.881,49.2355 324.5,49C 334.574,48.0769 344.574,48.4103 354.5,50C 355.823,50.8159 356.489,51.9826 356.5,53.5 Z"/></g>
<g><path style="opacity:0.247" fill="#dedede" d="M 337.5,53.5 C 341.846,53.3343 346.179,53.501 350.5,54C 351.056,54.3826 351.389,54.8826 351.5,55.5C 348.833,55.5 346.167,55.5 343.5,55.5C 341.5,54.8333 339.5,54.1667 337.5,53.5 Z"/></g>
<g><path style="opacity:0.605" fill="#ececec" d="M 356.5,54.5 C 357.777,55.6936 358.444,57.3603 358.5,59.5C 358.988,62.6111 357.988,64.9444 355.5,66.5C 356.907,62.5095 357.24,58.5095 356.5,54.5 Z"/></g>
<g><path style="opacity:0.437" fill="#e9e9e9" d="M 337.5,53.5 C 339.5,54.1667 341.5,54.8333 343.5,55.5C 337.491,55.3338 331.491,55.5005 325.5,56C 323.331,58.2031 320.665,59.0365 317.5,58.5C 317.263,57.209 317.596,56.209 318.5,55.5C 318.866,56.6946 319.699,57.3613 321,57.5C 325.876,53.9838 331.376,52.6505 337.5,53.5 Z"/></g>
<g><path style="opacity:0.243" fill="#dddddd" d="M 343.5,67.5 C 342.71,68.4013 341.71,69.0679 340.5,69.5C 340.821,67.9519 341.821,67.2852 343.5,67.5 Z"/></g>
<g><path style="opacity:0.358" fill="#e6e6e6" d="M 334.5,81.5 C 336.833,81.5 339.167,81.5 341.5,81.5C 341.5,83.1667 341.5,84.8333 341.5,86.5C 339.167,86.5 336.833,86.5 334.5,86.5C 334.5,84.8333 334.5,83.1667 334.5,81.5 Z M 335.5,82.5 C 335.5,83.5 335.5,84.5 335.5,85.5C 342.167,84.5 342.167,83.5 335.5,82.5 Z"/></g>
<g><path style="opacity:0.499" fill="#eaeaea" d="M 498.5,99.5 C 524.33,98.3365 550.33,98.1699 576.5,99C 580.344,100.347 583.011,102.847 584.5,106.5C 581.938,103.777 578.938,101.611 575.5,100C 549.835,99.5 524.169,99.3334 498.5,99.5 Z"/></g>
<g><path style="opacity:0.998" fill="#fefefe" d="M 497.5,99.5 C 497.833,99.5 498.167,99.5 498.5,99.5C 524.169,99.3334 549.835,99.5 575.5,100C 578.938,101.611 581.938,103.777 584.5,106.5C 585.404,107.209 585.737,108.209 585.5,109.5C 585.806,135.199 585.473,160.866 584.5,186.5C 582.757,190.389 579.757,192.889 575.5,194C 549.833,194.667 524.167,194.667 498.5,194C 492.798,191.635 489.298,187.469 488,181.5C 487.333,157.833 487.333,134.167 488,110.5C 488.374,108.509 489.207,106.842 490.5,105.5C 493.06,103.727 495.393,101.727 497.5,99.5 Z"/></g>
<g><path style="opacity:0.494" fill="#e3e3e3" d="M 497.5,99.5 C 495.393,101.727 493.06,103.727 490.5,105.5C 491.779,102.348 494.112,100.348 497.5,99.5 Z"/></g>
<g><path style="opacity:0.55" fill="#eaeaea" d="M 367.5,103.5 C 367.082,104.222 366.416,104.722 365.5,105C 346.995,105.829 328.662,105.662 310.5,104.5C 329.534,104.796 348.534,104.462 367.5,103.5 Z"/></g>
<g><path style="opacity:0.512" fill="#ebebeb" d="M 482.5,102.5 C 481.653,103.966 480.32,104.8 478.5,105C 449.997,105.83 421.664,105.664 393.5,104.5C 421.502,104.667 449.502,104.5 477.5,104C 479.154,103.392 480.821,102.892 482.5,102.5 Z"/></g>
<g><path style="opacity:0.996" fill="#fdfdfd" d="M 352.5,231.5 C 352.291,230.078 351.791,228.745 351,227.5C 350.5,194.168 350.333,160.835 350.5,127.5C 352.552,121.29 356.885,117.79 363.5,117C 396.5,116.333 429.5,116.333 462.5,117C 469.219,117.763 473.719,121.263 476,127.5C 476.667,161.167 476.667,194.833 476,228.5C 473.96,233.876 470.127,237.043 464.5,238C 429.833,238.667 395.167,238.667 360.5,238C 356.769,236.989 354.102,234.823 352.5,231.5 Z M 449.5,155.5 C 450.363,161.455 450.697,167.455 450.5,173.5C 449.463,174.93 448.796,176.597 448.5,178.5C 445.474,181.195 442.474,183.862 439.5,186.5C 433.752,188.362 428.085,190.529 422.5,193C 420.859,194.129 419.859,195.629 419.5,197.5C 418.733,198.172 418.066,199.005 417.5,200C 414.518,200.498 411.518,200.665 408.5,200.5C 408.5,198.833 408.5,197.167 408.5,195.5C 410.191,191.992 412.524,188.825 415.5,186C 422.379,182.481 429.379,179.148 436.5,176C 440.981,171.596 442.148,166.429 440,160.5C 439.583,159.244 438.75,158.577 437.5,158.5C 436.088,157.467 434.422,156.801 432.5,156.5C 420.511,157.79 408.511,157.79 396.5,156.5C 393.562,156.568 390.895,157.234 388.5,158.5C 387.5,158.833 386.833,159.5 386.5,160.5C 383.154,162.324 379.487,162.99 375.5,162.5C 375.674,160.139 376.007,157.806 376.5,155.5C 378.7,152.142 381.7,149.642 385.5,148C 403.824,146.05 422.157,146.05 440.5,148C 444.3,149.642 447.3,152.142 449.5,155.5 Z M 409.5,209.5 C 411.621,209.325 413.621,209.659 415.5,210.5C 417.344,212.279 418.01,214.612 417.5,217.5C 414.5,217.5 411.5,217.5 408.5,217.5C 408.279,214.721 408.612,212.054 409.5,209.5 Z"/></g>
<g><path style="opacity:0.365" fill="#e6e6e6" d="M 585.5,109.5 C 586.663,134.33 586.83,159.33 586,184.5C 585.722,185.416 585.222,186.082 584.5,186.5C 585.473,160.866 585.806,135.199 585.5,109.5 Z"/></g>
<g><path style="opacity:0.527" fill="#ededed" d="M 350.5,127.5 C 350.333,160.835 350.5,194.168 351,227.5C 351.791,228.745 352.291,230.078 352.5,231.5C 351.21,230.942 350.377,229.942 350,228.5C 349.169,194.664 349.336,160.998 350.5,127.5 Z"/></g>
<g><path style="opacity:0.714" fill="#f5f5f5" d="M 437.5,158.5 C 421.167,158.5 404.833,158.5 388.5,158.5C 390.895,157.234 393.562,156.568 396.5,156.5C 408.511,157.79 420.511,157.79 432.5,156.5C 434.422,156.801 436.088,157.467 437.5,158.5 Z"/></g>
<g><path style="opacity:0.141" fill="#e0e0e0" d="M 376.5,155.5 C 376.007,157.806 375.674,160.139 375.5,162.5C 379.487,162.99 383.154,162.324 386.5,160.5C 386.5,161.5 386.5,162.5 386.5,163.5C 382.5,163.5 378.5,163.5 374.5,163.5C 374.111,160.447 374.777,157.78 376.5,155.5 Z"/></g>
<g><path style="opacity:0.758" fill="#eeeeee" d="M 449.5,155.5 C 452.863,161.357 453.196,167.357 450.5,173.5C 450.697,167.455 450.363,161.455 449.5,155.5 Z"/></g>
<g><path style="opacity:0.653" fill="#f3f3f3" d="M 82.5,170.5 C 80.6916,170.509 79.0249,170.009 77.5,169C 53.1689,168.5 28.8356,168.333 4.5,168.5C 4.5,168.167 4.5,167.833 4.5,167.5C 26.7399,166.816 49.0733,166.649 71.5,167C 75.6785,166.936 79.3452,168.102 82.5,170.5 Z"/></g>
<g><path style="opacity:0.673" fill="#e5e5e5" d="M 148.5,167.5 C 149.097,166.861 149.93,166.528 151,166.5C 152.699,166.387 153.866,167.053 154.5,168.5C 152.379,168.675 150.379,168.341 148.5,167.5 Z"/></g>
<g><path style="opacity:0.995" fill="#fdfdfd" d="M 4.5,168.5 C 28.8356,168.333 53.1689,168.5 77.5,169C 79.0249,170.009 80.6916,170.509 82.5,170.5C 86.3877,172.238 88.8877,175.238 90,179.5C 90.6667,187.167 90.6667,194.833 90,202.5C 87.703,208.383 83.5363,212.05 77.5,213.5C 56.8333,213.5 36.1667,213.5 15.5,213.5C 15.5,222.167 15.5,230.833 15.5,239.5C 11.8333,239.5 8.16667,239.5 4.5,239.5C 4.5,215.833 4.5,192.167 4.5,168.5 Z M 76.5,181.5 C 77.4553,187.409 77.7886,193.409 77.5,199.5C 76.2905,199.932 75.2905,200.599 74.5,201.5C 55.1667,201.5 35.8333,201.5 16.5,201.5C 16.5,194.5 16.5,187.5 16.5,180.5C 36.5759,180.179 56.5759,180.513 76.5,181.5 Z"/></g>
<g><path style="opacity:0.998" fill="#fbfbfb" d="M 148.5,167.5 C 150.379,168.341 152.379,168.675 154.5,168.5C 170.55,191.221 186.217,214.221 201.5,237.5C 197.627,239.43 193.294,240.097 188.5,239.5C 184.866,235.589 181.699,231.256 179,226.5C 177.806,225.57 176.473,224.903 175,224.5C 157.865,225.313 140.698,225.813 123.5,226C 120.167,230.667 116.833,235.333 113.5,240C 108.845,240.499 104.179,240.666 99.5,240.5C 102.562,232.759 106.895,225.759 112.5,219.5C 115.605,216.725 117.938,213.392 119.5,209.5C 127.979,196.557 136.479,183.557 145,170.5C 145.759,168.937 146.926,167.937 148.5,167.5 Z M 149.5,186.5 C 151.411,187.075 153.078,188.075 154.5,189.5C 158.338,196.516 162.672,203.183 167.5,209.5C 167.611,210.117 167.944,210.617 168.5,211C 162.814,211.311 157.147,211.811 151.5,212.5C 145.091,212.3 139.091,211.3 133.5,209.5C 139.56,202.394 144.893,194.728 149.5,186.5 Z"/></g>
<g><path style="opacity:0.992" fill="#f9f9f9" d="M 215.5,166.5 C 218.909,166.249 222.242,166.583 225.5,167.5C 226.827,191.732 226.827,215.899 225.5,240C 221.577,240.793 217.744,240.626 214,239.5C 213.333,215.833 213.333,192.167 214,168.5C 214.717,167.956 215.217,167.289 215.5,166.5 Z"/></g>
<g><path style="opacity:0.619" fill="#efefef" d="M 320.5,168.5 C 295.833,168.5 271.167,168.5 246.5,168.5C 246.5,192.167 246.5,215.833 246.5,239.5C 250.167,239.5 253.833,239.5 257.5,239.5C 253.702,240.483 249.702,240.817 245.5,240.5C 245.167,216.158 245.5,191.824 246.5,167.5C 267.789,167.765 289.122,167.432 310.5,166.5C 314.05,166.754 317.383,167.421 320.5,168.5 Z"/></g>
<g><path style="opacity:0.996" fill="#fdfdfd" d="M 320.5,168.5 C 325.429,169.764 328.763,172.764 330.5,177.5C 331.03,185.321 331.696,192.988 332.5,200.5C 328.702,205.344 328.536,210.344 332,215.5C 332.667,223.5 332.667,231.5 332,239.5C 328.066,240.821 324.233,240.821 320.5,239.5C 320.666,231.826 320.5,224.159 320,216.5C 319.167,215.667 318.333,214.833 317.5,214C 297.492,213.167 277.492,213.334 257.5,214.5C 257.624,215.107 257.957,215.44 258.5,215.5C 258.801,223.586 258.467,231.586 257.5,239.5C 253.833,239.5 250.167,239.5 246.5,239.5C 246.5,215.833 246.5,192.167 246.5,168.5C 271.167,168.5 295.833,168.5 320.5,168.5 Z M 314.5,180.5 C 316.514,180.392 318.18,181.058 319.5,182.5C 319.746,188.559 319.413,194.559 318.5,200.5C 298.546,201.476 278.546,201.81 258.5,201.5C 258.5,194.5 258.5,187.5 258.5,180.5C 277.167,180.5 295.833,180.5 314.5,180.5 Z"/></g>
<g><path style="opacity:0.418" fill="#e6e6e6" d="M 4.5,167.5 C 4.5,167.833 4.5,168.167 4.5,168.5C 4.5,192.167 4.5,215.833 4.5,239.5C 8.16667,239.5 11.8333,239.5 15.5,239.5C 11.7016,240.483 7.70159,240.817 3.5,240.5C 3.16902,215.994 3.50235,191.661 4.5,167.5 Z"/></g>
<g><path style="opacity:0.788" fill="#f4f4f4" d="M 257.5,179.5 C 276.662,178.338 295.996,178.171 315.5,179C 317.91,179.057 319.244,180.224 319.5,182.5C 318.18,181.058 316.514,180.392 314.5,180.5C 295.674,179.503 276.674,179.17 257.5,179.5 Z"/></g>
<g><path style="opacity:0.116" fill="#e0e0e0" d="M 76.5,181.5 C 77.8164,184.087 78.483,187.087 78.5,190.5C 78.498,193.686 78.1647,196.686 77.5,199.5C 77.7886,193.409 77.4553,187.409 76.5,181.5 Z"/></g>
<g><path style="opacity:0.365" fill="#e4e4e4" d="M 330.5,177.5 C 331.268,178.263 331.768,179.263 332,180.5C 332.5,187.158 332.666,193.825 332.5,200.5C 331.696,192.988 331.03,185.321 330.5,177.5 Z"/></g>
<g><path style="opacity:0.616" fill="#ececec" d="M 448.5,178.5 C 446.767,182.565 443.767,185.232 439.5,186.5C 442.474,183.862 445.474,181.195 448.5,178.5 Z"/></g>
<g><path style="opacity:0.682" fill="#e5e5e5" d="M 154.5,189.5 C 153.078,188.075 151.411,187.075 149.5,186.5C 149.517,184.972 150.184,184.472 151.5,185C 153.141,186.129 154.141,187.629 154.5,189.5 Z"/></g>
<g><path style="opacity:0.244" fill="#e3e3e3" d="M 319.5,182.5 C 320.652,187.985 320.818,193.651 320,199.5C 319.617,200.056 319.117,200.389 318.5,200.5C 319.413,194.559 319.746,188.559 319.5,182.5 Z"/></g>
<g><path style="opacity:0.051" fill="#e0e0e0" d="M 408.5,195.5 C 408.5,197.167 408.5,198.833 408.5,200.5C 411.518,200.665 414.518,200.498 417.5,200C 418.066,199.005 418.733,198.172 419.5,197.5C 419.5,198.833 419.5,200.167 419.5,201.5C 415.5,201.5 411.5,201.5 407.5,201.5C 407.205,199.265 407.539,197.265 408.5,195.5 Z"/></g>
<g><path style="opacity:0.127" fill="#dfdfdf" d="M 76.5,181.5 C 56.5759,180.513 36.5759,180.179 16.5,180.5C 16.5,187.5 16.5,194.5 16.5,201.5C 35.8333,201.5 55.1667,201.5 74.5,201.5C 55.0071,202.497 35.3404,202.83 15.5,202.5C 15.5,194.833 15.5,187.167 15.5,179.5C 36.1941,178.845 56.5275,179.512 76.5,181.5 Z"/></g>
<g><path style="opacity:0.174" fill="#d8d8d8" d="M 257.5,179.5 C 276.674,179.17 295.674,179.503 314.5,180.5C 295.833,180.5 277.167,180.5 258.5,180.5C 258.5,187.5 258.5,194.5 258.5,201.5C 278.546,201.81 298.546,201.476 318.5,200.5C 318.389,201.117 318.056,201.617 317.5,202C 297.503,202.5 277.503,202.667 257.5,202.5C 257.5,194.833 257.5,187.167 257.5,179.5 Z"/></g>
<g><path style="opacity:0.673" fill="#e8e8e8" d="M 133.5,209.5 C 139.091,211.3 145.091,212.3 151.5,212.5C 157.147,211.811 162.814,211.311 168.5,211C 167.944,210.617 167.611,210.117 167.5,209.5C 168.329,208.668 169.162,209.001 170,210.5C 170.483,211.448 170.649,212.448 170.5,213.5C 157.483,213.832 144.483,213.499 131.5,212.5C 131.942,211.261 132.609,210.261 133.5,209.5 Z"/></g>
<g><path style="opacity:0.352" fill="#e4e4e4" d="M 77.5,213.5 C 57.3402,214.497 37.0069,214.83 16.5,214.5C 16.8261,223.017 16.4927,231.35 15.5,239.5C 15.5,230.833 15.5,222.167 15.5,213.5C 36.1667,213.5 56.8333,213.5 77.5,213.5 Z"/></g>
<g><path style="opacity:0.315" fill="#e5e5e5" d="M 320.5,239.5 C 319.671,232.345 319.171,225.011 319,217.5C 318.167,216.667 317.333,215.833 316.5,215C 296.996,214.171 277.662,214.338 258.5,215.5C 257.957,215.44 257.624,215.107 257.5,214.5C 277.492,213.334 297.492,213.167 317.5,214C 318.333,214.833 319.167,215.667 320,216.5C 320.5,224.159 320.666,231.826 320.5,239.5 Z"/></g>
<g><path style="opacity:0.553" fill="#ececec" d="M 119.5,209.5 C 117.938,213.392 115.605,216.725 112.5,219.5C 114.062,215.608 116.395,212.275 119.5,209.5 Z"/></g>
<g><path style="opacity:0.118" fill="#dddddd" d="M 409.5,209.5 C 408.612,212.054 408.279,214.721 408.5,217.5C 411.5,217.5 414.5,217.5 417.5,217.5C 418.01,214.612 417.344,212.279 415.5,210.5C 416.209,209.596 417.209,209.263 418.5,209.5C 418.5,212.5 418.5,215.5 418.5,218.5C 414.833,218.5 411.167,218.5 407.5,218.5C 406.945,214.988 407.612,211.988 409.5,209.5 Z M 409.5,209.5 C 411.621,209.325 413.621,209.659 415.5,210.5C 417.344,212.279 418.01,214.612 417.5,217.5C 414.5,217.5 411.5,217.5 408.5,217.5C 408.279,214.721 408.612,212.054 409.5,209.5 Z"/></g>
<g><path style="opacity:0.393" fill="#e5e5e5" d="M 201.5,237.5 C 202.404,238.209 202.737,239.209 202.5,240.5C 197.637,240.819 192.97,240.486 188.5,239.5C 193.294,240.097 197.627,239.43 201.5,237.5 Z"/></g>
<g><path style="opacity:0.55" fill="#eaeaea" d="M 139.5,261.5 C 137.66,259.832 135.66,258.332 133.5,257C 119.5,256.333 105.5,256.333 91.5,257C 89.8043,258.176 88.1376,259.343 86.5,260.5C 87.0312,258.376 88.3645,256.876 90.5,256C 105.167,255.333 119.833,255.333 134.5,256C 137.079,257.076 138.746,258.909 139.5,261.5 Z"/></g>
<g><path style="opacity:0.998" fill="#fdfdfd" d="M 139.5,261.5 C 139.799,275.549 139.465,289.549 138.5,303.5C 137.229,305.934 135.229,307.434 132.5,308C 119.167,308.667 105.833,308.667 92.5,308C 88.2297,306.73 85.7297,303.896 85,299.5C 84.3333,287.5 84.3333,275.5 85,263.5C 85.2321,262.263 85.7321,261.263 86.5,260.5C 88.1376,259.343 89.8043,258.176 91.5,257C 105.5,256.333 119.5,256.333 133.5,257C 135.66,258.332 137.66,259.832 139.5,261.5 Z"/></g>
<g><path style="opacity:0.505" fill="#ebebeb" d="M 484.5,259.5 C 467.497,259.333 450.497,259.5 433.5,260C 430.846,260.941 428.179,261.774 425.5,262.5C 426.975,260.59 428.975,259.424 431.5,259C 449.338,258.171 467.005,258.338 484.5,259.5 Z"/></g>
<g><path style="opacity:0.998" fill="#fbfbfb" d="M 267.5,325.5 C 267.703,327.044 268.37,328.378 269.5,329.5C 264.817,330.72 260.15,330.72 255.5,329.5C 252.474,325.795 249.808,321.795 247.5,317.5C 238.525,316.168 229.191,315.502 219.5,315.5C 209.994,315.5 200.661,315.834 191.5,316.5C 188.645,321.557 185.312,326.223 181.5,330.5C 177.154,330.666 172.821,330.499 168.5,330C 170.82,327.522 172.486,324.689 173.5,321.5C 181.449,308.888 189.783,296.555 198.5,284.5C 201.605,281.725 203.938,278.392 205.5,274.5C 208.19,268.965 211.523,263.799 215.5,259C 217.833,257 220.167,257 222.5,259C 238.138,280.792 253.138,302.959 267.5,325.5 Z M 235.5,299.5 C 236.677,301.103 236.511,302.436 235,303.5C 223.737,303.685 212.57,303.019 201.5,301.5C 207.109,293.383 212.942,285.383 219,277.5C 224.755,284.692 230.255,292.025 235.5,299.5 Z"/></g>
<g><path style="opacity:0.995" fill="#fbfbfb" d="M 282.5,258.5 C 305.502,258.333 328.502,258.5 351.5,259C 361.293,262.459 367.126,269.293 369,279.5C 369.667,289.5 369.667,299.5 369,309.5C 367.589,320.246 361.756,327.413 351.5,331C 328.5,331.667 305.5,331.667 282.5,331C 281.171,306.833 281.171,282.667 282.5,258.5 Z M 306.5,271.5 C 320.837,271.333 335.171,271.5 349.5,272C 350.984,272.662 352.317,273.496 353.5,274.5C 354.594,276.359 355.427,278.359 356,280.5C 356.667,289.833 356.667,299.167 356,308.5C 355.562,313.431 353.062,316.765 348.5,318.5C 330.423,318.819 312.423,318.486 294.5,317.5C 294.5,302.167 294.5,286.833 294.5,271.5C 298.5,271.5 302.5,271.5 306.5,271.5 Z"/></g>
<g><path style="opacity:0.985" fill="#fbfbfb" d="M 397.5,259.5 C 398.833,283.167 398.833,306.833 397.5,330.5C 393.833,330.5 390.167,330.5 386.5,330.5C 386.5,306.833 386.5,283.167 386.5,259.5C 390.167,259.5 393.833,259.5 397.5,259.5 Z"/></g>
<g><path style="opacity:0.993" fill="#fcfcfc" d="M 484.5,259.5 C 491.663,261.329 496.663,265.662 499.5,272.5C 499.963,275.482 500.296,278.482 500.5,281.5C 496.833,281.5 493.167,281.5 489.5,281.5C 488.779,277.253 486.445,274.086 482.5,272C 466.106,270.907 449.772,270.907 433.5,272C 431.341,273.059 429.674,274.559 428.5,276.5C 427.883,276.611 427.383,276.944 427,277.5C 426.174,289.008 426.341,300.341 427.5,311.5C 428.338,311.842 428.672,312.508 428.5,313.5C 429.254,316.091 430.921,317.924 433.5,319C 449.833,319.667 466.167,319.667 482.5,319C 483.056,318.617 483.389,318.117 483.5,317.5C 487.565,314.667 489.565,310.667 489.5,305.5C 479.554,303.525 469.221,302.858 458.5,303.5C 458.5,299.833 458.5,296.167 458.5,292.5C 470.66,291.34 482.993,291.173 495.5,292C 498.079,293.076 499.746,294.909 500.5,297.5C 500.909,304.965 500.243,312.298 498.5,319.5C 496.108,324.225 492.441,327.558 487.5,329.5C 469.19,330.433 450.857,330.766 432.5,330.5C 429.654,330.448 427.32,329.448 425.5,327.5C 423.5,324.833 421.167,322.5 418.5,320.5C 416.896,319.713 416.229,318.38 416.5,316.5C 415.41,303.526 415.244,290.526 416,277.5C 417.213,273.15 419.046,269.15 421.5,265.5C 422.262,263.738 423.596,262.738 425.5,262.5C 428.179,261.774 430.846,260.941 433.5,260C 450.497,259.5 467.497,259.333 484.5,259.5 Z"/></g>
<g><path style="opacity:0.996" fill="#fcfcfc" d="M 608.5,259.5 C 611.5,259.5 614.5,259.5 617.5,259.5C 617.5,283.167 617.5,306.833 617.5,330.5C 614.024,331.643 610.358,331.81 606.5,331C 605.944,330.617 605.611,330.117 605.5,329.5C 606.661,314.005 606.828,298.339 606,282.5C 603.517,285.139 601.684,288.139 600.5,291.5C 591.051,304.789 581.384,317.955 571.5,331C 568.331,331.978 565.497,331.478 563,329.5C 552.824,315.137 542.657,300.804 532.5,286.5C 532.372,284.91 531.705,283.577 530.5,282.5C 529.501,298.486 529.167,314.486 529.5,330.5C 525.833,330.5 522.167,330.5 518.5,330.5C 517.168,306.863 517.168,283.196 518.5,259.5C 522.045,258.209 525.545,258.209 529,259.5C 541.619,277.944 554.785,295.944 568.5,313.5C 581.854,295.432 595.188,277.432 608.5,259.5 Z"/></g>
<g><path style="opacity:0.425" fill="#ececec" d="M 397.5,259.5 C 393.833,259.5 390.167,259.5 386.5,259.5C 386.5,283.167 386.5,306.833 386.5,330.5C 390.167,330.5 393.833,330.5 397.5,330.5C 393.702,331.483 389.702,331.817 385.5,331.5C 385.5,307.167 385.5,282.833 385.5,258.5C 389.702,258.183 393.702,258.517 397.5,259.5 Z"/></g>
<g><path style="opacity:0.528" fill="#ebebeb" d="M 139.5,261.5 C 140.661,274.994 140.827,288.66 140,302.5C 139.617,303.056 139.117,303.389 138.5,303.5C 139.465,289.549 139.799,275.549 139.5,261.5 Z"/></g>
<g><path style="opacity:0.998" fill="#fefefe" d="M 68.5,267.5 C 69.0798,269.749 70.4131,271.415 72.5,272.5C 72.5,272.833 72.5,273.167 72.5,273.5C 72.7942,291.868 72.4609,310.201 71.5,328.5C 70.1064,330.708 68.1064,332.208 65.5,333C 48.1667,333.667 30.8333,333.667 13.5,333C 10.017,332.015 7.68362,329.849 6.5,326.5C 6.33339,308.497 6.50006,290.497 7,272.5C 7.99728,270.677 9.16394,269.01 10.5,267.5C 10.9175,266.778 11.5842,266.278 12.5,266C 30.5,265.333 48.5,265.333 66.5,266C 67.4158,266.278 68.0825,266.778 68.5,267.5 Z"/></g>
<g><path style="opacity:0.792" fill="#e8e8e8" d="M 68.5,267.5 C 70.5869,268.585 71.9202,270.251 72.5,272.5C 70.4131,271.415 69.0798,269.749 68.5,267.5 Z"/></g>
<g><path style="opacity:0.489" fill="#e5e5e5" d="M 306.5,271.5 C 302.5,271.5 298.5,271.5 294.5,271.5C 294.5,286.833 294.5,302.167 294.5,317.5C 294.5,318.167 294.5,318.833 294.5,319.5C 293.504,303.342 293.17,287.009 293.5,270.5C 298.032,270.182 302.366,270.515 306.5,271.5 Z"/></g>
<g><path style="opacity:0.546" fill="#ebebeb" d="M 10.5,267.5 C 9.16394,269.01 7.99728,270.677 7,272.5C 6.50006,290.497 6.33339,308.497 6.5,326.5C 5.3379,308.338 5.17123,290.005 6,271.5C 6.74753,269.249 8.24753,267.916 10.5,267.5 Z"/></g>
<g><path style="opacity:0.561" fill="#ebebeb" d="M 205.5,274.5 C 203.938,278.392 201.605,281.725 198.5,284.5C 200.062,280.608 202.395,277.275 205.5,274.5 Z"/></g>
<g><path style="opacity:0.572" fill="#ededed" d="M 353.5,274.5 C 355.614,275.36 356.78,277.027 357,279.5C 357.667,290.167 357.667,300.833 357,311.5C 355.587,315.748 352.754,318.415 348.5,319.5C 348.5,319.167 348.5,318.833 348.5,318.5C 353.062,316.765 355.562,313.431 356,308.5C 356.667,299.167 356.667,289.833 356,280.5C 355.427,278.359 354.594,276.359 353.5,274.5 Z"/></g>
<g><path style="opacity:0.384" fill="#e6e6e6" d="M 421.5,265.5 C 419.046,269.15 417.213,273.15 416,277.5C 415.244,290.526 415.41,303.526 416.5,316.5C 415.732,315.737 415.232,314.737 415,313.5C 414.333,301.167 414.333,288.833 415,276.5C 415.772,271.92 417.939,268.253 421.5,265.5 Z"/></g>
<g><path style="opacity:0.407" fill="#e8e8e8" d="M 499.5,272.5 C 500.222,272.918 500.722,273.584 501,274.5C 501.497,277.146 501.664,279.813 501.5,282.5C 497.298,282.817 493.298,282.483 489.5,281.5C 493.167,281.5 496.833,281.5 500.5,281.5C 500.296,278.482 499.963,275.482 499.5,272.5 Z"/></g>
<g><path style="opacity:0.275" fill="#e1e1e1" d="M 72.5,273.5 C 73.6619,290.995 73.8286,308.662 73,326.5C 72.7216,327.416 72.2216,328.082 71.5,328.5C 72.4609,310.201 72.7942,291.868 72.5,273.5 Z"/></g>
<g><path style="opacity:0.617" fill="#ececec" d="M 532.5,286.5 C 531.732,287.263 531.232,288.263 531,289.5C 530.5,303.496 530.333,317.496 530.5,331.5C 526.298,331.817 522.298,331.483 518.5,330.5C 522.167,330.5 525.833,330.5 529.5,330.5C 529.167,314.486 529.501,298.486 530.5,282.5C 531.705,283.577 532.372,284.91 532.5,286.5 Z"/></g>
<g><path style="opacity:0.169" fill="#e1e1e1" d="M 428.5,276.5 C 427.542,288.116 427.209,299.783 427.5,311.5C 426.341,300.341 426.174,289.008 427,277.5C 427.383,276.944 427.883,276.611 428.5,276.5 Z"/></g>
<g><path style="opacity:0.124" fill="#dfdfdf" d="M 605.5,329.5 C 605.667,315.163 605.5,300.829 605,286.5C 603.483,288.24 601.983,289.906 600.5,291.5C 601.684,288.139 603.517,285.139 606,282.5C 606.828,298.339 606.661,314.005 605.5,329.5 Z"/></g>
<g><path style="opacity:0.372" fill="#e6e6e6" d="M 617.5,330.5 C 617.5,306.833 617.5,283.167 617.5,259.5C 614.5,259.5 611.5,259.5 608.5,259.5C 611.191,257.334 614.191,257.001 617.5,258.5C 618.829,282.663 618.829,306.663 617.5,330.5 Z"/></g>
<g><path style="opacity:0.641" fill="#e8e8e8" d="M 235.5,299.5 C 236.933,300.833 238.267,302.333 239.5,304C 226.154,304.833 212.821,304.666 199.5,303.5C 199.855,302.478 200.522,301.811 201.5,301.5C 212.57,303.019 223.737,303.685 235,303.5C 236.511,302.436 236.677,301.103 235.5,299.5 Z"/></g>
<g><path style="opacity:0.501" fill="#e9e9e9" d="M 458.5,292.5 C 458.5,296.167 458.5,299.833 458.5,303.5C 469.221,302.858 479.554,303.525 489.5,305.5C 478.915,304.524 468.248,304.191 457.5,304.5C 457.183,300.298 457.517,296.298 458.5,292.5 Z"/></g>
<g><path style="opacity:0.029" fill="#d2d2d2" d="M 191.5,316.5 C 200.661,315.834 209.994,315.5 219.5,315.5C 229.191,315.502 238.525,316.168 247.5,317.5C 228.91,316.514 210.243,316.18 191.5,316.5 Z"/></g>
<g><path style="opacity:0.408" fill="#e7e7e7" d="M 500.5,297.5 C 501.652,302.985 501.818,308.651 501,314.5C 500.626,316.491 499.793,318.158 498.5,319.5C 500.243,312.298 500.909,304.965 500.5,297.5 Z"/></g>
<g><path style="opacity:0.718" fill="#efefef" d="M 154.5,319.5 C 131.498,319.333 108.498,319.5 85.5,320C 83.9625,321.707 82.2959,323.207 80.5,324.5C 81.8001,320.704 84.4668,318.537 88.5,318C 107.047,318.717 125.547,318.55 144,317.5C 147.805,317.304 151.305,317.97 154.5,319.5 Z"/></g>
<g><path style="opacity:0.144" fill="#dbdbdb" d="M 294.5,317.5 C 312.423,318.486 330.423,318.819 348.5,318.5C 348.5,318.833 348.5,319.167 348.5,319.5C 330.5,319.5 312.5,319.5 294.5,319.5C 294.5,318.833 294.5,318.167 294.5,317.5 Z"/></g>
<g><path style="opacity:0.141" fill="#dcdcdc" d="M 428.5,313.5 C 430.34,315.168 432.34,316.668 434.5,318C 450.878,318.804 467.211,318.637 483.5,317.5C 483.389,318.117 483.056,318.617 482.5,319C 466.167,319.667 449.833,319.667 433.5,319C 430.921,317.924 429.254,316.091 428.5,313.5 Z"/></g>
<g><path style="opacity:0.998" fill="#fdfdfd" d="M 154.5,319.5 C 157.562,320.268 159.228,322.268 159.5,325.5C 159.798,345.867 159.465,366.2 158.5,386.5C 157.229,388.934 155.229,390.434 152.5,391C 130.5,391.667 108.5,391.667 86.5,391C 83.3333,389.833 81.1667,387.667 80,384.5C 79.1709,364.329 79.3375,344.329 80.5,324.5C 82.2959,323.207 83.9625,321.707 85.5,320C 108.498,319.5 131.498,319.333 154.5,319.5 Z M 103.5,339.5 C 114.871,339.232 126.205,339.566 137.5,340.5C 137.833,341.167 138.167,341.833 138.5,342.5C 140.738,346.991 141.072,351.658 139.5,356.5C 138.167,357.167 137.167,358.167 136.5,359.5C 134.181,359.992 132.181,360.992 130.5,362.5C 127.984,362.755 125.65,363.589 123.5,365C 122.446,368.258 120.446,369.092 117.5,367.5C 118.246,366.264 118.579,364.93 118.5,363.5C 122.623,360.166 127.289,357.666 132.5,356C 133.381,355.292 134.047,354.458 134.5,353.5C 135.634,351.034 135.801,348.367 135,345.5C 133.933,344.809 132.766,344.309 131.5,344C 123.833,343.333 116.167,343.333 108.5,344C 105.374,344.99 102.374,346.156 99.5,347.5C 99.5,346.167 99.5,344.833 99.5,343.5C 101.167,342.5 102.5,341.167 103.5,339.5 Z"/></g>
<g><path style="opacity:0.035" fill="#e5e5e5" d="M 418.5,320.5 C 421.167,322.5 423.5,324.833 425.5,327.5C 422.167,326.167 419.833,323.833 418.5,320.5 Z"/></g>
<g><path style="opacity:0.539" fill="#e8e8e8" d="M 173.5,321.5 C 172.486,324.689 170.82,327.522 168.5,330C 172.821,330.499 177.154,330.666 181.5,330.5C 177.03,331.486 172.363,331.819 167.5,331.5C 168.272,327.402 170.272,324.069 173.5,321.5 Z"/></g>
<g><path style="opacity:0.51" fill="#ebebeb" d="M 267.5,325.5 C 270.051,326.775 271.051,328.609 270.5,331C 265.833,331.667 261.167,331.667 256.5,331C 255.944,330.617 255.611,330.117 255.5,329.5C 260.15,330.72 264.817,330.72 269.5,329.5C 268.37,328.378 267.703,327.044 267.5,325.5 Z"/></g>
<g><path style="opacity:0.479" fill="#e8e8e8" d="M 487.5,329.5 C 486.391,330.29 485.058,330.79 483.5,331C 466.328,331.828 449.328,331.662 432.5,330.5C 450.857,330.766 469.19,330.433 487.5,329.5 Z"/></g>
<g><path style="opacity:0.059" fill="#dfdfdf" d="M 103.5,339.5 C 113.992,338.341 124.659,338.175 135.5,339C 136.416,339.278 137.082,339.778 137.5,340.5C 126.205,339.566 114.871,339.232 103.5,339.5 Z"/></g>
<g><path style="opacity:0.654" fill="#eaeaea" d="M 99.5,343.5 C 99.5,344.833 99.5,346.167 99.5,347.5C 102.374,346.156 105.374,344.99 108.5,344C 116.167,343.333 123.833,343.333 131.5,344C 132.766,344.309 133.933,344.809 135,345.5C 135.801,348.367 135.634,351.034 134.5,353.5C 134.768,350.881 134.435,348.381 133.5,346C 128.833,345.833 124.167,345.667 119.5,345.5C 111.82,345.558 104.487,346.558 97.5,348.5C 97.1201,346.302 97.7868,344.635 99.5,343.5 Z"/></g>
<g><path style="opacity:0.183" fill="#e5e5e5" d="M 138.5,342.5 C 139.75,342.577 140.583,343.244 141,344.5C 141.667,348.167 141.667,351.833 141,355.5C 140.617,356.056 140.117,356.389 139.5,356.5C 141.072,351.658 140.738,346.991 138.5,342.5 Z"/></g>
<g><path style="opacity:0.284" fill="#dfdfdf" d="M 159.5,325.5 C 160.662,344.996 160.829,364.662 160,384.5C 159.722,385.416 159.222,386.082 158.5,386.5C 159.465,366.2 159.798,345.867 159.5,325.5 Z"/></g>
<g><path style="opacity:0.163" fill="#e6e6e6" d="M 136.5,359.5 C 135.216,361.614 133.216,362.614 130.5,362.5C 132.181,360.992 134.181,359.992 136.5,359.5 Z"/></g>
<g><path style="opacity:0.376" fill="#e9e9e9" d="M 130.5,362.5 C 127.651,363.806 125.318,365.806 123.5,368.5C 121.257,369.474 118.924,369.808 116.5,369.5C 116.054,366.99 116.72,364.99 118.5,363.5C 118.579,364.93 118.246,366.264 117.5,367.5C 120.446,369.092 122.446,368.258 123.5,365C 125.65,363.589 127.984,362.755 130.5,362.5 Z"/></g>
<g><path style="opacity:0.379" fill="#d7d7d7" d="M 116.5,374.5 C 118.5,374.5 120.5,374.5 122.5,374.5C 122.5,375.833 122.5,377.167 122.5,378.5C 120.5,378.5 118.5,378.5 116.5,378.5C 116.5,377.167 116.5,375.833 116.5,374.5 Z"/></g>
</svg>
